<svg width="100" height="100" viewBox="0 0 100 100" fill="none" xmlns="http://www.w3.org/2000/svg">
<path d="M12.5 20.8333C12.5 16.25 16.25 12.5 20.8333 12.5H79.1667C83.75 12.5 87.5 16.25 87.5 20.8333V79.1667C87.5 83.75 83.75 87.5 79.1667 87.5H20.8333C16.25 87.5 12.5 83.75 12.5 79.1667V20.8333Z" fill="#E1E7EA"/>
<path d="M33.3333 35.4167C31.4182 35.4167 29.5219 35.7939 27.7525 36.5268C25.9832 37.2597 24.3755 38.3339 23.0214 39.688C21.6672 41.0422 20.593 42.6499 19.8601 44.4192C19.1272 46.1886 18.75 48.0849 18.75 50C18.75 51.9151 19.1272 53.8115 19.8601 55.5808C20.593 57.3501 21.6672 58.9578 23.0214 60.312C24.3755 61.6662 25.9832 62.7404 27.7525 63.4733C29.5219 64.2061 31.4182 64.5834 33.3333 64.5834C35.2484 64.5834 37.1448 64.2061 38.9141 63.4733C40.6835 62.7404 42.2911 61.6662 43.6453 60.312C44.9995 58.9578 46.0737 57.3501 46.8066 55.5808C47.5395 53.8115 47.9167 51.9151 47.9167 50C47.9167 48.0849 47.5395 46.1886 46.8066 44.4192C46.0737 42.6499 44.9995 41.0422 43.6453 39.688C42.2911 38.3339 40.6835 37.2597 38.9141 36.5268C37.1448 35.7939 35.2484 35.4167 33.3333 35.4167Z" fill="#1565C0"/>
<path d="M66.6667 35.4167C64.7516 35.4167 62.8552 35.7939 61.0859 36.5268C59.3166 37.2597 57.7089 38.3339 56.3547 39.688C55.0005 41.0422 53.9263 42.6499 53.1935 44.4192C52.4606 46.1886 52.0834 48.0849 52.0834 50C52.0834 51.9151 52.4606 53.8115 53.1935 55.5808C53.9263 57.3501 55.0005 58.9578 56.3547 60.312C57.7089 61.6662 59.3166 62.7404 61.0859 63.4733C62.8552 64.2061 64.7516 64.5834 66.6667 64.5834C68.5818 64.5834 70.4782 64.2061 72.2475 63.4733C74.0168 62.7404 75.6245 61.6662 76.9787 60.312C78.3329 58.9578 79.4071 57.3501 80.1399 55.5808C80.8728 53.8115 81.25 51.9151 81.25 50C81.25 48.0849 80.8728 46.1886 80.1399 44.4192C79.4071 42.6499 78.3329 41.0422 76.9787 39.688C75.6245 38.3339 74.0168 37.2597 72.2475 36.5268C70.4782 35.7939 68.5818 35.4167 66.6667 35.4167Z" fill="#FF4081"/>
</svg>
